<?xml version="1.0" encoding="UTF-8"?>
<svg version="1.1" viewBox="0 0 2048 758" xmlns="http://www.w3.org/2000/svg">
<path transform="translate(0)" d="m0 0h2048v758h-2048z" fill="#FEFFFE"/>
<path transform="translate(1019,202)" d="m0 0 8 1 46 10 454 101 30 7 5 3 3 4 1 6-4 6-5 3-14-2-520-116-8 1-520 117-9-2-4-5v-8l5-6 25-6 222-50 236-53z" fill="#2B4779"/>
<path transform="translate(1014,255)" d="m0 0h19l16 4 17 8 13 9 12 11 9 11 1 4-12 14-12 11-15 9-16 7-13 3h-17l-18-4-17-8-13-9-13-13-8-9-1-3 7-10 12-12 14-10 19-9z" fill="#2B4779"/>
<path transform="translate(1199,377)" d="m0 0h35l10 4 5 6 2 5 1 6v9l-2 9-6 8-6 3 7 14 12 20v2h-11l-16-28-3-5-18-1v34h-10z" fill="#080B12"/>
<path transform="translate(603,376)" d="m0 0h22l12 1 10 4 6 8 2 8v12l-2 10-6 8-9 4-6 1h-20v31h-10v-86z" fill="#080B13"/>
<path transform="translate(961,376)" d="m0 0 7 1 8 15 11 23 13 27 2 1 2-6 16-32 11-23 2-5 9-1v87h-9l-1-61-8 16-16 33-3 6-3 2-5-1-13-26-11-23-3-6-1 60h-9v-86z" fill="#06070C"/>
<path transform="translate(1017,272)" d="m0 0h13l12 6 6 7 4 10v11l-3 9-8 9-7 4-4 1h-12l-11-4-7-7-4-8-1-5v-9l3-9 6-8 10-6z" fill="#FEFFFE"/>
<path transform="translate(520,384)" d="m0 0 10 1 7 4 4 6 2 9v32l-2 9-6 7-7 3h-12l-8-5-4-5-2-7v-37l4-10 6-5z" fill="#FEFFFE"/>
<path transform="translate(1121,376)" d="m0 0 5 1 18 53 11 31v2h-11l-7-20h-34l-6 18-1 2h-10l12-36 17-49z" fill="#06080D"/>
<path transform="translate(798,376)" d="m0 0h5l7 10 12 20 22 34v2h2l-1-2v-63l2-1h7l1 1v86h-8l-7-10-16-26-14-22-4-6-1 63-1 1h-9v-86z" fill="#090D15"/>
<path transform="translate(519,375)" d="m0 0 13 1 7 3 8 7 4 7 2 11v32l-2 11-5 8-6 5-11 4h-14l-10-4-8-7-4-9-1-5v-38l3-10 6-9 8-5zm1 9-8 2-6 5-4 10v37l3 9 7 6 4 2h12l8-4 5-6 2-9v-32l-2-9-5-7-6-3z" fill="#07090F"/>
<path transform="translate(1309,376)" d="m0 0 3 1v45h2l2-4 11-13 9-11 11-13 5-5h10l-4 7-9 10-9 11-7 9 2 5 29 44v1h-12l-25-38-4-4-2 4-8 10-1 28h-10v-86z" fill="#070910"/>
<path transform="translate(702,376)" d="m0 0h32l16 1-1 8-7 1h-30l-1 29h33v8l-32 1-1 30h39v8l-1 1h-48v-86z" fill="#070A11"/>
<path transform="translate(1409,376)" d="m0 0 47 1v8l-1 1h-36l-1 29h32l1 2v5l-1 1-31 1-1 30h38v9h-48v-86z" fill="#07090F"/>
<path transform="translate(1509,376)" d="m0 0h40l6 1v8l-2 1h-24v77h-10v-77h-23l-3-1v-8z" fill="#080A12"/>
<path transform="translate(613,385)" d="m0 0h13l10 1 6 4 3 8v12l-2 7-5 5-4 1h-22v-37z" fill="#FEFFFE"/>
<path transform="translate(1210,385)" d="m0 0h13l10 1 5 3 3 5 1 13-2 7-6 5-2 1-12 1h-10l-1-1v-34z" fill="#FEFFFE"/>
<path transform="translate(953,513)" d="m0 0h18l6 5 1 3v10l-5 6 1 5 6 11v2h-5l-9-16-8-1v9l-1 8h-4z" fill="#0A0E18"/>
<path transform="translate(1120,391)" d="m0 0 2 2 11 35 1 5-3 1h-24l-1-3 13-39z" fill="#FEFFFE"/>
<path transform="translate(1019,287)" d="m0 0h10l7 6 1 2v11l-4 6-4 2h-11l-6-5-2-4v-9l4-6z" fill="#2B4779"/>
<path transform="translate(1128,517)" d="m0 0h10l4 5 1 5v15l-3 7-3 2h-8l-4-2-2-4v-21l3-5z" fill="#FEFFFE"/>
<path transform="translate(1184,513)" d="m0 0 5 1 15 24 3 5 1-24 1-6 4 1v41l-5-1-13-21-5-8-2 30h-4z" fill="#0F1728"/>
<path transform="translate(765,513)" d="m0 0 4 1 11 17 8 13 1-31h4v42h-4l-16-26-3-5-1 31h-5z" fill="#0A0F19"/>
<path transform="translate(1131,512)" d="m0 0 8 1 7 6 1 3v24l-3 5-3 3-3 1h-11l-6-4-3-7v-20l3-7 6-4zm-3 5-4 4-1 3v21l2 4 4 2h8l5-5 1-4v-15l-2-7-3-3z" fill="#0B101B"/>
<path transform="translate(1024,512)" d="m0 0 9 1 5 4 2 7-5 1-2-6-2-1h-9l-3 3 1 8 11 3 8 4 2 5-1 8-5 5-3 1h-10l-6-3-3-7 1-4 3 1 3 6 2 2h9l4-4-1-7-16-6-4-4-1-6 3-7 4-3z" fill="#0B101C"/>
<path transform="translate(1318,512)" d="m0 0 9 1 6 5 1 7-5-1-2-5-2-1h-9l-3 4 1 7 11 3 8 4 2 5v6l-4 6-5 2h-10l-6-3-3-6 1-4h3l3 6 2 2h9l4-3v-6l-3-3-15-5-3-5v-8l3-5z" fill="#0C121F"/>
<path transform="translate(1251,513)" d="m0 0h23v4h-18v15h16v3h-16v16l3-1h15l1 4-1 1h-23z" fill="#10192A"/>
<path transform="translate(895,513)" d="m0 0h23l-1 4h-18v15h16v3l-15 1v14h17l1 5h-24v-39z" fill="#0D1321"/>
<path transform="translate(829,512)" d="m0 0 4 2 10 30 1 1 11-31 5-1-3 11-10 29-3 3-4-4-12-37z" fill="#0B101C"/>
<path transform="translate(958,517)" d="m0 0h10l4 2 1 2v10l-4 3h-11l-1-1v-15z" fill="#FEFFFE"/>
<path transform="translate(1077,513)" d="m0 0h4v42h-4l-1-14v-17z" fill="#070A11"/>
<path transform="translate(722,513)" d="m0 0h4v42h-4z" fill="#040407"/>
</svg>
